<mxfile host="app.diagrams.net" modified="2023-06-11T06:05:43.399Z" agent="Mozilla/5.0 (Windows NT 10.0; Win64; x64) AppleWebKit/537.36 (KHTML, like Gecko) Chrome/114.0.0.0 Safari/537.36 Edg/114.0.1823.43" etag="GHQuWcwWk9jlSLhu9sv2" version="21.3.8" type="github">
  <diagram id="R2lEEEUBdFMjLlhIrx00" name="Page-1">
    <mxGraphModel dx="1500" dy="773" grid="1" gridSize="10" guides="1" tooltips="1" connect="1" arrows="1" fold="1" page="1" pageScale="1" pageWidth="850" pageHeight="1100" math="0" shadow="0" extFonts="Permanent Marker^https://fonts.googleapis.com/css?family=Permanent+Marker">
      <root>
        <mxCell id="0" />
        <mxCell id="1" parent="0" />
        <mxCell id="f5dtG0LYJ4X8ntDvLw5E-8" style="edgeStyle=orthogonalEdgeStyle;rounded=0;orthogonalLoop=1;jettySize=auto;html=1;entryX=0;entryY=0.5;entryDx=0;entryDy=0;" edge="1" parent="1" source="f5dtG0LYJ4X8ntDvLw5E-1" target="f5dtG0LYJ4X8ntDvLw5E-5">
          <mxGeometry relative="1" as="geometry" />
        </mxCell>
        <mxCell id="f5dtG0LYJ4X8ntDvLw5E-1" value="name&lt;span id=&quot;docs-internal-guid-c04d8e55-7fff-e13b-721e-d48469350705&quot;&gt;&lt;/span&gt;" style="ellipse;whiteSpace=wrap;html=1;align=center;" vertex="1" parent="1">
          <mxGeometry x="80" y="260" width="100" height="40" as="geometry" />
        </mxCell>
        <mxCell id="f5dtG0LYJ4X8ntDvLw5E-3" value="有" style="shape=rhombus;perimeter=rhombusPerimeter;whiteSpace=wrap;html=1;align=center;" vertex="1" parent="1">
          <mxGeometry x="460" y="200" width="120" height="60" as="geometry" />
        </mxCell>
        <mxCell id="f5dtG0LYJ4X8ntDvLw5E-5" value="User" style="rounded=1;arcSize=10;whiteSpace=wrap;html=1;align=center;" vertex="1" parent="1">
          <mxGeometry x="225" y="210" width="100" height="40" as="geometry" />
        </mxCell>
        <mxCell id="f5dtG0LYJ4X8ntDvLw5E-10" style="edgeStyle=orthogonalEdgeStyle;rounded=0;orthogonalLoop=1;jettySize=auto;html=1;entryX=0.25;entryY=0;entryDx=0;entryDy=0;" edge="1" parent="1" source="f5dtG0LYJ4X8ntDvLw5E-6" target="f5dtG0LYJ4X8ntDvLw5E-5">
          <mxGeometry relative="1" as="geometry" />
        </mxCell>
        <mxCell id="f5dtG0LYJ4X8ntDvLw5E-6" value="userID" style="ellipse;whiteSpace=wrap;html=1;align=center;fontStyle=4;" vertex="1" parent="1">
          <mxGeometry x="150" y="110" width="100" height="40" as="geometry" />
        </mxCell>
        <mxCell id="f5dtG0LYJ4X8ntDvLw5E-9" style="edgeStyle=orthogonalEdgeStyle;rounded=0;orthogonalLoop=1;jettySize=auto;html=1;entryX=0;entryY=0.5;entryDx=0;entryDy=0;" edge="1" parent="1" source="f5dtG0LYJ4X8ntDvLw5E-7" target="f5dtG0LYJ4X8ntDvLw5E-5">
          <mxGeometry relative="1" as="geometry" />
        </mxCell>
        <mxCell id="f5dtG0LYJ4X8ntDvLw5E-7" value="password&lt;span id=&quot;docs-internal-guid-c04d8e55-7fff-e13b-721e-d48469350705&quot;&gt;&lt;/span&gt;" style="ellipse;whiteSpace=wrap;html=1;align=center;" vertex="1" parent="1">
          <mxGeometry x="80" y="170" width="100" height="40" as="geometry" />
        </mxCell>
        <mxCell id="f5dtG0LYJ4X8ntDvLw5E-12" style="edgeStyle=orthogonalEdgeStyle;rounded=0;orthogonalLoop=1;jettySize=auto;html=1;entryX=0.25;entryY=1;entryDx=0;entryDy=0;" edge="1" parent="1" source="f5dtG0LYJ4X8ntDvLw5E-11" target="f5dtG0LYJ4X8ntDvLw5E-5">
          <mxGeometry relative="1" as="geometry">
            <Array as="points">
              <mxPoint x="240" y="280" />
              <mxPoint x="250" y="280" />
            </Array>
          </mxGeometry>
        </mxCell>
        <mxCell id="f5dtG0LYJ4X8ntDvLw5E-11" value="email&lt;span id=&quot;docs-internal-guid-c04d8e55-7fff-e13b-721e-d48469350705&quot;&gt;&lt;/span&gt;" style="ellipse;whiteSpace=wrap;html=1;align=center;" vertex="1" parent="1">
          <mxGeometry x="150" y="310" width="100" height="40" as="geometry" />
        </mxCell>
        <mxCell id="f5dtG0LYJ4X8ntDvLw5E-14" value="" style="endArrow=none;html=1;rounded=0;entryX=0;entryY=0.5;entryDx=0;entryDy=0;" edge="1" parent="1" target="f5dtG0LYJ4X8ntDvLw5E-3">
          <mxGeometry relative="1" as="geometry">
            <mxPoint x="325" y="229.5" as="sourcePoint" />
            <mxPoint x="485" y="229.5" as="targetPoint" />
          </mxGeometry>
        </mxCell>
        <mxCell id="f5dtG0LYJ4X8ntDvLw5E-15" value="1" style="edgeLabel;html=1;align=center;verticalAlign=middle;resizable=0;points=[];" vertex="1" connectable="0" parent="f5dtG0LYJ4X8ntDvLw5E-14">
          <mxGeometry x="-0.4845" y="1" relative="1" as="geometry">
            <mxPoint as="offset" />
          </mxGeometry>
        </mxCell>
        <mxCell id="f5dtG0LYJ4X8ntDvLw5E-16" value="N" style="edgeLabel;html=1;align=center;verticalAlign=middle;resizable=0;points=[];" vertex="1" connectable="0" parent="f5dtG0LYJ4X8ntDvLw5E-14">
          <mxGeometry x="0.6976" y="3" relative="1" as="geometry">
            <mxPoint as="offset" />
          </mxGeometry>
        </mxCell>
        <mxCell id="f5dtG0LYJ4X8ntDvLw5E-17" value="Post" style="rounded=1;arcSize=10;whiteSpace=wrap;html=1;align=center;" vertex="1" parent="1">
          <mxGeometry x="730" y="210" width="100" height="40" as="geometry" />
        </mxCell>
        <mxCell id="f5dtG0LYJ4X8ntDvLw5E-18" value="" style="endArrow=none;html=1;rounded=0;exitX=1;exitY=0.5;exitDx=0;exitDy=0;entryX=0;entryY=0.5;entryDx=0;entryDy=0;" edge="1" parent="1" source="f5dtG0LYJ4X8ntDvLw5E-3" target="f5dtG0LYJ4X8ntDvLw5E-17">
          <mxGeometry relative="1" as="geometry">
            <mxPoint x="570" y="220" as="sourcePoint" />
            <mxPoint x="730" y="220" as="targetPoint" />
          </mxGeometry>
        </mxCell>
        <mxCell id="f5dtG0LYJ4X8ntDvLw5E-19" value="1" style="edgeLabel;html=1;align=center;verticalAlign=middle;resizable=0;points=[];" vertex="1" connectable="0" parent="f5dtG0LYJ4X8ntDvLw5E-18">
          <mxGeometry x="-0.632" y="-2" relative="1" as="geometry">
            <mxPoint as="offset" />
          </mxGeometry>
        </mxCell>
        <mxCell id="f5dtG0LYJ4X8ntDvLw5E-20" value="1" style="edgeLabel;html=1;align=center;verticalAlign=middle;resizable=0;points=[];" vertex="1" connectable="0" parent="f5dtG0LYJ4X8ntDvLw5E-18">
          <mxGeometry x="0.528" y="-1" relative="1" as="geometry">
            <mxPoint as="offset" />
          </mxGeometry>
        </mxCell>
        <mxCell id="f5dtG0LYJ4X8ntDvLw5E-23" style="edgeStyle=orthogonalEdgeStyle;rounded=0;orthogonalLoop=1;jettySize=auto;html=1;entryX=0.25;entryY=0;entryDx=0;entryDy=0;" edge="1" parent="1" source="f5dtG0LYJ4X8ntDvLw5E-21" target="f5dtG0LYJ4X8ntDvLw5E-17">
          <mxGeometry relative="1" as="geometry" />
        </mxCell>
        <mxCell id="f5dtG0LYJ4X8ntDvLw5E-21" value="userID" style="ellipse;whiteSpace=wrap;html=1;align=center;fontStyle=4;" vertex="1" parent="1">
          <mxGeometry x="680" y="130" width="100" height="40" as="geometry" />
        </mxCell>
        <mxCell id="f5dtG0LYJ4X8ntDvLw5E-24" style="edgeStyle=orthogonalEdgeStyle;rounded=0;orthogonalLoop=1;jettySize=auto;html=1;entryX=0.75;entryY=0;entryDx=0;entryDy=0;" edge="1" parent="1" source="f5dtG0LYJ4X8ntDvLw5E-22" target="f5dtG0LYJ4X8ntDvLw5E-17">
          <mxGeometry relative="1" as="geometry" />
        </mxCell>
        <mxCell id="f5dtG0LYJ4X8ntDvLw5E-22" value="postID" style="ellipse;whiteSpace=wrap;html=1;align=center;fontStyle=4;" vertex="1" parent="1">
          <mxGeometry x="810" y="130" width="100" height="40" as="geometry" />
        </mxCell>
        <mxCell id="f5dtG0LYJ4X8ntDvLw5E-26" value="" style="edgeStyle=orthogonalEdgeStyle;rounded=0;orthogonalLoop=1;jettySize=auto;html=1;" edge="1" parent="1" source="f5dtG0LYJ4X8ntDvLw5E-25" target="f5dtG0LYJ4X8ntDvLw5E-17">
          <mxGeometry relative="1" as="geometry" />
        </mxCell>
        <mxCell id="f5dtG0LYJ4X8ntDvLw5E-25" value="title&lt;span id=&quot;docs-internal-guid-c04d8e55-7fff-e13b-721e-d48469350705&quot;&gt;&lt;/span&gt;" style="ellipse;whiteSpace=wrap;html=1;align=center;" vertex="1" parent="1">
          <mxGeometry x="880" y="210" width="100" height="40" as="geometry" />
        </mxCell>
        <mxCell id="f5dtG0LYJ4X8ntDvLw5E-28" style="edgeStyle=orthogonalEdgeStyle;rounded=0;orthogonalLoop=1;jettySize=auto;html=1;entryX=1;entryY=0.75;entryDx=0;entryDy=0;" edge="1" parent="1" source="f5dtG0LYJ4X8ntDvLw5E-27" target="f5dtG0LYJ4X8ntDvLw5E-17">
          <mxGeometry relative="1" as="geometry" />
        </mxCell>
        <mxCell id="f5dtG0LYJ4X8ntDvLw5E-27" value="description&lt;span id=&quot;docs-internal-guid-c04d8e55-7fff-e13b-721e-d48469350705&quot;&gt;&lt;/span&gt;" style="ellipse;whiteSpace=wrap;html=1;align=center;" vertex="1" parent="1">
          <mxGeometry x="870" y="280" width="100" height="40" as="geometry" />
        </mxCell>
        <mxCell id="f5dtG0LYJ4X8ntDvLw5E-29" value="tag" style="rounded=1;arcSize=10;whiteSpace=wrap;html=1;align=center;" vertex="1" parent="1">
          <mxGeometry x="800" y="520" width="100" height="40" as="geometry" />
        </mxCell>
        <mxCell id="f5dtG0LYJ4X8ntDvLw5E-30" value="有" style="shape=rhombus;perimeter=rhombusPerimeter;whiteSpace=wrap;html=1;align=center;" vertex="1" parent="1">
          <mxGeometry x="790" y="360" width="120" height="60" as="geometry" />
        </mxCell>
        <mxCell id="f5dtG0LYJ4X8ntDvLw5E-32" value="" style="endArrow=none;html=1;rounded=0;exitX=0.5;exitY=1;exitDx=0;exitDy=0;entryX=0.5;entryY=0;entryDx=0;entryDy=0;" edge="1" parent="1" source="f5dtG0LYJ4X8ntDvLw5E-17" target="f5dtG0LYJ4X8ntDvLw5E-30">
          <mxGeometry relative="1" as="geometry">
            <mxPoint x="590" y="329.5" as="sourcePoint" />
            <mxPoint x="740" y="329.5" as="targetPoint" />
          </mxGeometry>
        </mxCell>
        <mxCell id="f5dtG0LYJ4X8ntDvLw5E-33" value="1" style="edgeLabel;html=1;align=center;verticalAlign=middle;resizable=0;points=[];" vertex="1" connectable="0" parent="f5dtG0LYJ4X8ntDvLw5E-32">
          <mxGeometry x="-0.632" y="-2" relative="1" as="geometry">
            <mxPoint as="offset" />
          </mxGeometry>
        </mxCell>
        <mxCell id="f5dtG0LYJ4X8ntDvLw5E-34" value="1" style="edgeLabel;html=1;align=center;verticalAlign=middle;resizable=0;points=[];" vertex="1" connectable="0" parent="f5dtG0LYJ4X8ntDvLw5E-32">
          <mxGeometry x="0.528" y="-1" relative="1" as="geometry">
            <mxPoint as="offset" />
          </mxGeometry>
        </mxCell>
        <mxCell id="f5dtG0LYJ4X8ntDvLw5E-35" value="" style="endArrow=none;html=1;rounded=0;exitX=0.5;exitY=1;exitDx=0;exitDy=0;entryX=0.5;entryY=0;entryDx=0;entryDy=0;" edge="1" parent="1" source="f5dtG0LYJ4X8ntDvLw5E-30" target="f5dtG0LYJ4X8ntDvLw5E-29">
          <mxGeometry relative="1" as="geometry">
            <mxPoint x="860" y="280" as="sourcePoint" />
            <mxPoint x="860" y="370" as="targetPoint" />
          </mxGeometry>
        </mxCell>
        <mxCell id="f5dtG0LYJ4X8ntDvLw5E-36" value="N" style="edgeLabel;html=1;align=center;verticalAlign=middle;resizable=0;points=[];" vertex="1" connectable="0" parent="f5dtG0LYJ4X8ntDvLw5E-35">
          <mxGeometry x="-0.632" y="-2" relative="1" as="geometry">
            <mxPoint as="offset" />
          </mxGeometry>
        </mxCell>
        <mxCell id="f5dtG0LYJ4X8ntDvLw5E-37" value="1" style="edgeLabel;html=1;align=center;verticalAlign=middle;resizable=0;points=[];" vertex="1" connectable="0" parent="f5dtG0LYJ4X8ntDvLw5E-35">
          <mxGeometry x="0.528" y="-1" relative="1" as="geometry">
            <mxPoint as="offset" />
          </mxGeometry>
        </mxCell>
        <mxCell id="f5dtG0LYJ4X8ntDvLw5E-40" value="" style="edgeStyle=orthogonalEdgeStyle;rounded=0;orthogonalLoop=1;jettySize=auto;html=1;" edge="1" parent="1" source="f5dtG0LYJ4X8ntDvLw5E-39" target="f5dtG0LYJ4X8ntDvLw5E-29">
          <mxGeometry relative="1" as="geometry" />
        </mxCell>
        <mxCell id="f5dtG0LYJ4X8ntDvLw5E-39" value="postID" style="ellipse;whiteSpace=wrap;html=1;align=center;fontStyle=4;" vertex="1" parent="1">
          <mxGeometry x="940" y="480" width="100" height="40" as="geometry" />
        </mxCell>
        <mxCell id="f5dtG0LYJ4X8ntDvLw5E-43" style="edgeStyle=orthogonalEdgeStyle;rounded=0;orthogonalLoop=1;jettySize=auto;html=1;entryX=1;entryY=0.75;entryDx=0;entryDy=0;" edge="1" parent="1" source="f5dtG0LYJ4X8ntDvLw5E-42" target="f5dtG0LYJ4X8ntDvLw5E-29">
          <mxGeometry relative="1" as="geometry" />
        </mxCell>
        <mxCell id="f5dtG0LYJ4X8ntDvLw5E-42" value="name&lt;span id=&quot;docs-internal-guid-c04d8e55-7fff-e13b-721e-d48469350705&quot;&gt;&lt;/span&gt;" style="ellipse;whiteSpace=wrap;html=1;align=center;" vertex="1" parent="1">
          <mxGeometry x="950" y="570" width="100" height="40" as="geometry" />
        </mxCell>
        <mxCell id="f5dtG0LYJ4X8ntDvLw5E-45" value="有" style="shape=rhombus;perimeter=rhombusPerimeter;whiteSpace=wrap;html=1;align=center;" vertex="1" parent="1">
          <mxGeometry x="590" y="360" width="120" height="60" as="geometry" />
        </mxCell>
        <mxCell id="f5dtG0LYJ4X8ntDvLw5E-48" value="" style="endArrow=none;html=1;rounded=0;entryX=0.5;entryY=0;entryDx=0;entryDy=0;exitX=0.25;exitY=1;exitDx=0;exitDy=0;" edge="1" parent="1" source="f5dtG0LYJ4X8ntDvLw5E-17" target="f5dtG0LYJ4X8ntDvLw5E-45">
          <mxGeometry relative="1" as="geometry">
            <mxPoint x="335" y="239.5" as="sourcePoint" />
            <mxPoint x="470" y="240" as="targetPoint" />
          </mxGeometry>
        </mxCell>
        <mxCell id="f5dtG0LYJ4X8ntDvLw5E-49" value="1" style="edgeLabel;html=1;align=center;verticalAlign=middle;resizable=0;points=[];" vertex="1" connectable="0" parent="f5dtG0LYJ4X8ntDvLw5E-48">
          <mxGeometry x="-0.4845" y="1" relative="1" as="geometry">
            <mxPoint as="offset" />
          </mxGeometry>
        </mxCell>
        <mxCell id="f5dtG0LYJ4X8ntDvLw5E-50" value="N" style="edgeLabel;html=1;align=center;verticalAlign=middle;resizable=0;points=[];" vertex="1" connectable="0" parent="f5dtG0LYJ4X8ntDvLw5E-48">
          <mxGeometry x="0.6976" y="3" relative="1" as="geometry">
            <mxPoint as="offset" />
          </mxGeometry>
        </mxCell>
        <mxCell id="f5dtG0LYJ4X8ntDvLw5E-51" value="comment" style="rounded=1;arcSize=10;whiteSpace=wrap;html=1;align=center;" vertex="1" parent="1">
          <mxGeometry x="600" y="500" width="100" height="40" as="geometry" />
        </mxCell>
        <mxCell id="f5dtG0LYJ4X8ntDvLw5E-54" style="edgeStyle=orthogonalEdgeStyle;rounded=0;orthogonalLoop=1;jettySize=auto;html=1;entryX=0.75;entryY=1;entryDx=0;entryDy=0;" edge="1" parent="1" source="f5dtG0LYJ4X8ntDvLw5E-53" target="f5dtG0LYJ4X8ntDvLw5E-51">
          <mxGeometry relative="1" as="geometry" />
        </mxCell>
        <mxCell id="f5dtG0LYJ4X8ntDvLw5E-53" value="postID" style="ellipse;whiteSpace=wrap;html=1;align=center;fontStyle=4;" vertex="1" parent="1">
          <mxGeometry x="670" y="590" width="100" height="40" as="geometry" />
        </mxCell>
        <mxCell id="f5dtG0LYJ4X8ntDvLw5E-57" style="edgeStyle=orthogonalEdgeStyle;rounded=0;orthogonalLoop=1;jettySize=auto;html=1;" edge="1" parent="1" source="f5dtG0LYJ4X8ntDvLw5E-56">
          <mxGeometry relative="1" as="geometry">
            <mxPoint x="650" y="540" as="targetPoint" />
            <Array as="points">
              <mxPoint x="650" y="540" />
            </Array>
          </mxGeometry>
        </mxCell>
        <mxCell id="f5dtG0LYJ4X8ntDvLw5E-56" value="userID" style="ellipse;whiteSpace=wrap;html=1;align=center;fontStyle=4;" vertex="1" parent="1">
          <mxGeometry x="600" y="660" width="100" height="40" as="geometry" />
        </mxCell>
        <mxCell id="f5dtG0LYJ4X8ntDvLw5E-59" style="edgeStyle=orthogonalEdgeStyle;rounded=0;orthogonalLoop=1;jettySize=auto;html=1;entryX=0.188;entryY=1.105;entryDx=0;entryDy=0;entryPerimeter=0;" edge="1" parent="1" source="f5dtG0LYJ4X8ntDvLw5E-58" target="f5dtG0LYJ4X8ntDvLw5E-51">
          <mxGeometry relative="1" as="geometry" />
        </mxCell>
        <mxCell id="f5dtG0LYJ4X8ntDvLw5E-58" value="content" style="ellipse;whiteSpace=wrap;html=1;align=center;" vertex="1" parent="1">
          <mxGeometry x="530" y="610" width="100" height="40" as="geometry" />
        </mxCell>
        <mxCell id="f5dtG0LYJ4X8ntDvLw5E-61" value="" style="endArrow=none;html=1;rounded=0;exitX=0.5;exitY=0;exitDx=0;exitDy=0;entryX=0.5;entryY=1;entryDx=0;entryDy=0;" edge="1" parent="1" source="f5dtG0LYJ4X8ntDvLw5E-51" target="f5dtG0LYJ4X8ntDvLw5E-45">
          <mxGeometry relative="1" as="geometry">
            <mxPoint x="590" y="240" as="sourcePoint" />
            <mxPoint x="740" y="240" as="targetPoint" />
          </mxGeometry>
        </mxCell>
        <mxCell id="f5dtG0LYJ4X8ntDvLw5E-69" value="1" style="edgeLabel;html=1;align=center;verticalAlign=middle;resizable=0;points=[];" vertex="1" connectable="0" parent="f5dtG0LYJ4X8ntDvLw5E-61">
          <mxGeometry x="-0.625" y="2" relative="1" as="geometry">
            <mxPoint as="offset" />
          </mxGeometry>
        </mxCell>
        <mxCell id="f5dtG0LYJ4X8ntDvLw5E-70" value="1" style="edgeLabel;html=1;align=center;verticalAlign=middle;resizable=0;points=[];" vertex="1" connectable="0" parent="f5dtG0LYJ4X8ntDvLw5E-61">
          <mxGeometry x="0.4" relative="1" as="geometry">
            <mxPoint as="offset" />
          </mxGeometry>
        </mxCell>
        <mxCell id="f5dtG0LYJ4X8ntDvLw5E-64" value="有" style="shape=rhombus;perimeter=rhombusPerimeter;whiteSpace=wrap;html=1;align=center;" vertex="1" parent="1">
          <mxGeometry x="240" y="390" width="120" height="60" as="geometry" />
        </mxCell>
        <mxCell id="f5dtG0LYJ4X8ntDvLw5E-65" value="" style="endArrow=none;html=1;rounded=0;entryX=0.5;entryY=0;entryDx=0;entryDy=0;exitX=0.75;exitY=1;exitDx=0;exitDy=0;" edge="1" parent="1" source="f5dtG0LYJ4X8ntDvLw5E-5" target="f5dtG0LYJ4X8ntDvLw5E-64">
          <mxGeometry relative="1" as="geometry">
            <mxPoint x="335" y="239.5" as="sourcePoint" />
            <mxPoint x="470" y="240" as="targetPoint" />
          </mxGeometry>
        </mxCell>
        <mxCell id="f5dtG0LYJ4X8ntDvLw5E-66" value="1" style="edgeLabel;html=1;align=center;verticalAlign=middle;resizable=0;points=[];" vertex="1" connectable="0" parent="f5dtG0LYJ4X8ntDvLw5E-65">
          <mxGeometry x="-0.4845" y="1" relative="1" as="geometry">
            <mxPoint as="offset" />
          </mxGeometry>
        </mxCell>
        <mxCell id="f5dtG0LYJ4X8ntDvLw5E-67" value="N" style="edgeLabel;html=1;align=center;verticalAlign=middle;resizable=0;points=[];" vertex="1" connectable="0" parent="f5dtG0LYJ4X8ntDvLw5E-65">
          <mxGeometry x="0.6976" y="3" relative="1" as="geometry">
            <mxPoint as="offset" />
          </mxGeometry>
        </mxCell>
        <mxCell id="f5dtG0LYJ4X8ntDvLw5E-68" value="friend" style="rounded=1;arcSize=10;whiteSpace=wrap;html=1;align=center;" vertex="1" parent="1">
          <mxGeometry x="250" y="570" width="100" height="40" as="geometry" />
        </mxCell>
        <mxCell id="f5dtG0LYJ4X8ntDvLw5E-71" value="" style="endArrow=none;html=1;rounded=0;entryX=0.5;entryY=0;entryDx=0;entryDy=0;exitX=0.5;exitY=1;exitDx=0;exitDy=0;" edge="1" parent="1" source="f5dtG0LYJ4X8ntDvLw5E-64" target="f5dtG0LYJ4X8ntDvLw5E-68">
          <mxGeometry relative="1" as="geometry">
            <mxPoint x="335" y="239.5" as="sourcePoint" />
            <mxPoint x="470" y="240" as="targetPoint" />
          </mxGeometry>
        </mxCell>
        <mxCell id="f5dtG0LYJ4X8ntDvLw5E-72" value="N" style="edgeLabel;html=1;align=center;verticalAlign=middle;resizable=0;points=[];" vertex="1" connectable="0" parent="f5dtG0LYJ4X8ntDvLw5E-71">
          <mxGeometry x="-0.4845" y="1" relative="1" as="geometry">
            <mxPoint as="offset" />
          </mxGeometry>
        </mxCell>
        <mxCell id="f5dtG0LYJ4X8ntDvLw5E-73" value="N" style="edgeLabel;html=1;align=center;verticalAlign=middle;resizable=0;points=[];" vertex="1" connectable="0" parent="f5dtG0LYJ4X8ntDvLw5E-71">
          <mxGeometry x="0.6976" y="3" relative="1" as="geometry">
            <mxPoint as="offset" />
          </mxGeometry>
        </mxCell>
        <mxCell id="f5dtG0LYJ4X8ntDvLw5E-76" value="" style="edgeStyle=orthogonalEdgeStyle;rounded=0;orthogonalLoop=1;jettySize=auto;html=1;" edge="1" parent="1" source="f5dtG0LYJ4X8ntDvLw5E-74" target="f5dtG0LYJ4X8ntDvLw5E-68">
          <mxGeometry relative="1" as="geometry" />
        </mxCell>
        <mxCell id="f5dtG0LYJ4X8ntDvLw5E-74" value="userID" style="ellipse;whiteSpace=wrap;html=1;align=center;fontStyle=4;" vertex="1" parent="1">
          <mxGeometry x="100" y="570" width="100" height="40" as="geometry" />
        </mxCell>
        <mxCell id="f5dtG0LYJ4X8ntDvLw5E-79" style="edgeStyle=orthogonalEdgeStyle;rounded=0;orthogonalLoop=1;jettySize=auto;html=1;entryX=0.5;entryY=1;entryDx=0;entryDy=0;" edge="1" parent="1" source="f5dtG0LYJ4X8ntDvLw5E-78" target="f5dtG0LYJ4X8ntDvLw5E-68">
          <mxGeometry relative="1" as="geometry" />
        </mxCell>
        <mxCell id="f5dtG0LYJ4X8ntDvLw5E-78" value="friendID&lt;span id=&quot;docs-internal-guid-c04d8e55-7fff-e13b-721e-d48469350705&quot;&gt;&lt;/span&gt;" style="ellipse;whiteSpace=wrap;html=1;align=center;" vertex="1" parent="1">
          <mxGeometry x="160" y="670" width="100" height="40" as="geometry" />
        </mxCell>
      </root>
    </mxGraphModel>
  </diagram>
</mxfile>
